<?xml version="1.0" encoding="UTF-8" standalone="no"?>
<svg
   xmlns:dc="http://purl.org/dc/elements/1.1/"
   xmlns:cc="http://creativecommons.org/ns#"
   xmlns:rdf="http://www.w3.org/1999/02/22-rdf-syntax-ns#"
   xmlns:svg="http://www.w3.org/2000/svg"
   xmlns="http://www.w3.org/2000/svg"
   version="1.1"
   id="svg2984"
   height="156"
   width="156">
  <title
     id="title3789">EXT:lib_tableparser</title>
  <defs
     id="defs2986" />
  <metadata
     id="metadata2989">
    <rdf:RDF>
      <cc:Work
         rdf:about="">
        <dc:format>image/svg+xml</dc:format>
        <dc:type
           rdf:resource="http://purl.org/dc/dcmitype/StillImage" />
        <dc:title>lib_js</dc:title>
        <dc:date>28.03.2017</dc:date>
        <dc:creator>
          <cc:Agent>
            <dc:title>stephan.kellermayr@gmail.com</dc:title>
          </cc:Agent>
        </dc:creator>
        <dc:rights>
          <cc:Agent>
            <dc:title>sonority.at</dc:title>
          </cc:Agent>
        </dc:rights>
      </cc:Work>
    </rdf:RDF>
  </metadata>
  <g
     transform="translate(-93.428574,-345.79375)"
     id="layer1">
    <rect
       width="156"
       height="156"
       x="93.428574"
       y="345.79376"
       id="background"
       style="fill:#ff8800;fill-opacity:1" />
    <path
       id="shadow"
       transform="translate(93.428574,345.79375)"
       d="M 99.375 34.974609 C 93.25165 34.974609 84.967204 36.775495 83.646484 37.015625 L 83.646484 50.34375 L 94.939453 69.914062 L 94.140625 69.914062 L 74.603516 36.054688 L 35.625 36 L 35.580078 36.054688 L 23.576172 36.054688 L 23.576172 50.583984 L 40.638672 80.146484 L 40.865234 80.322266 L 40.865234 120.10156 L 61.597656 156 L 156 156 L 156 107.4668 L 119.05469 43.298828 C 119.03352 43.261886 119.01357 43.224155 118.99219 43.1875 L 118.88086 42.996094 C 118.87716 42.995074 118.87284 42.995159 118.86914 42.994141 C 115.30542 37.08098 108.84874 34.974609 99.375 34.974609 z "
       style="color:#000000;display:inline;overflow:visible;visibility:visible;fill:#000000;fill-opacity:0.2745098;fill-rule:nonzero;stroke:none;stroke-width:0.03543307;marker:none;enable-background:accumulate" />
    <path
       id="icon"
       transform="translate(93.428574,345.79375)"
       d="M 99.375 34.974609 C 93.25165 34.974609 84.967204 36.775495 83.646484 37.015625 L 83.646484 50.34375 C 87.128394 49.62336 92.531563 48.302734 97.814453 48.302734 C 103.81773 48.302734 106.21875 51.664072 106.21875 58.507812 C 106.21875 65.711752 103.45702 69.914062 96.613281 69.914062 L 88.568359 69.914062 L 88.568359 83.001953 L 97.814453 83.001953 C 105.13845 83.001953 107.53906 86.963005 107.53906 96.328125 C 107.53906 103.7722 103.81784 107.85547 98.054688 107.85547 C 92.771797 107.85547 85.926502 106.41477 83.044922 105.81445 L 83.044922 119.14062 C 84.125522 119.38076 94.091389 121.18164 99.974609 121.18164 C 113.30189 121.18164 123.62695 115.29797 123.62695 95.126953 C 123.62695 83.240453 119.78524 77.117595 113.18164 75.796875 C 119.78524 73.515625 122.1875 66.071118 122.1875 58.867188 C 122.1875 40.497147 114.7434 34.974609 99.375 34.974609 z M 23.576172 36.054688 L 23.576172 50.583984 L 40.865234 50.583984 L 40.865234 120.10156 L 57.314453 120.10156 L 57.314453 50.583984 L 74.603516 50.583984 L 74.603516 36.054688 L 23.576172 36.054688 z "
       style="font-style:normal;font-variant:normal;font-weight:bold;font-stretch:normal;font-size:medium;line-height:125%;font-family:Share-Bold;-inkscape-font-specification:'Share-Bold Bold';text-align:center;letter-spacing:0px;word-spacing:0px;text-anchor:middle;fill:#ffffff;fill-opacity:1;stroke:none;stroke-width:1px;stroke-linecap:butt;stroke-linejoin:miter;stroke-opacity:1" />
  </g>
</svg>
